<svg id="logo" preserveAspectRatio="none" viewBox="0 0 471 72" fill="none" xmlns="http://www.w3.org/2000/svg">
<g filter="url(#filter0_d)">
<path d="M26.1686 28.025L26.6388 27.8551L26.5196 27.525H26.1686V28.025ZM12.4886 28.025V27.525H12.1376L12.0183 27.8551L12.4886 28.025ZM9.96857 35V35.5H10.3196L10.4388 35.1699L9.96857 35ZM5.64857 35L5.17868 34.8291L4.93472 35.5H5.64857V35ZM16.9886 3.815V3.315H16.6384L16.5187 3.64413L16.9886 3.815ZM21.7136 3.815L22.1837 3.64473L22.0643 3.315H21.7136V3.815ZM33.0086 35V35.5H33.7215L33.4787 34.8297L33.0086 35ZM28.6886 35L28.2183 35.1699L28.3376 35.5H28.6886V35ZM24.9986 24.695V25.195H25.7086L25.4693 24.5265L24.9986 24.695ZM19.3286 8.855L19.7993 8.68649L19.3286 7.37138L18.8578 8.68649L19.3286 8.855ZM13.6586 24.695L13.1878 24.5265L12.9485 25.195H13.6586V24.695ZM26.1686 27.525H12.4886V28.525H26.1686V27.525ZM12.0183 27.8551L9.49832 34.8301L10.4388 35.1699L12.9588 28.1949L12.0183 27.8551ZM9.96857 34.5H5.64857V35.5H9.96857V34.5ZM6.11847 35.1709L17.4585 3.98587L16.5187 3.64413L5.17868 34.8291L6.11847 35.1709ZM16.9886 4.315H21.7136V3.315H16.9886V4.315ZM21.2435 3.98527L32.5385 35.1703L33.4787 34.8297L22.1837 3.64473L21.2435 3.98527ZM33.0086 34.5H28.6886V35.5H33.0086V34.5ZM29.1588 34.8301L26.6388 27.8551L25.6983 28.1949L28.2183 35.1699L29.1588 34.8301ZM25.4693 24.5265L19.7993 8.68649L18.8578 9.02351L24.5278 24.8635L25.4693 24.5265ZM18.8578 8.68649L13.1878 24.5265L14.1293 24.8635L19.7993 9.02351L18.8578 8.68649ZM13.6586 25.195H24.9986V24.195H13.6586V25.195ZM57.2558 12.635L56.9052 12.9914L56.9081 12.9943L57.2558 12.635ZM60.0458 35V35.5H60.5458V35H60.0458ZM55.9958 35H55.4958V35.5H55.9958V35ZM54.1508 15.425L53.785 15.7659L53.789 15.77L54.1508 15.425ZM43.9358 15.47L43.5743 15.1245L43.5703 15.1288L43.9358 15.47ZM42.0458 35V35.5H42.5458V35H42.0458ZM37.9508 35H37.4508V35.5H37.9508V35ZM37.9508 10.34V9.84H37.4508V10.34H37.9508ZM42.0458 10.34H42.5458V9.84H42.0458V10.34ZM42.0458 13.85H41.5458V15.5524L42.4664 14.1204L42.0458 13.85ZM45.3308 10.925L45.1111 10.4759L45.1072 10.4778L45.3308 10.925ZM49.9658 10.39C52.8559 10.39 55.1528 11.2673 56.9052 12.9914L57.6065 12.2786C55.6389 10.3427 53.0758 9.39 49.9658 9.39V10.39ZM56.9081 12.9943C58.6424 14.6727 59.5458 17.1351 59.5458 20.465H60.5458C60.5458 16.9549 59.5893 14.1973 57.6036 12.2757L56.9081 12.9943ZM59.5458 20.465V35H60.5458V20.465H59.5458ZM60.0458 34.5H55.9958V35.5H60.0458V34.5ZM56.4958 35V21.05H55.4958V35H56.4958ZM56.4958 21.05C56.4958 18.511 55.8605 16.4935 54.5127 15.08L53.789 15.77C54.9012 16.9365 55.4958 18.669 55.4958 21.05H56.4958ZM54.5166 15.0841C53.175 13.6443 51.3523 12.945 49.1108 12.945V13.945C51.1294 13.945 52.6667 14.5657 53.785 15.7659L54.5166 15.0841ZM49.1108 12.945C46.8376 12.945 44.9737 13.6602 43.5743 15.1246L44.2973 15.8154C45.478 14.5798 47.064 13.945 49.1108 13.945V12.945ZM43.5703 15.1288C42.1947 16.6027 41.5458 18.7089 41.5458 21.365H42.5458C42.5458 18.8611 43.157 17.0373 44.3014 15.8112L43.5703 15.1288ZM41.5458 21.365V35H42.5458V21.365H41.5458ZM42.0458 34.5H37.9508V35.5H42.0458V34.5ZM38.4508 35V10.34H37.4508V35H38.4508ZM37.9508 10.84H42.0458V9.84H37.9508V10.84ZM41.5458 10.34V13.85H42.5458V10.34H41.5458ZM42.4664 14.1204C43.2263 12.9383 44.2523 12.0233 45.5544 11.3722L45.1072 10.4778C43.6494 11.2067 42.4853 12.2417 41.6253 13.5796L42.4664 14.1204ZM45.5506 11.3741C46.8874 10.7199 48.3566 10.39 49.9658 10.39V9.39C48.2151 9.39 46.5942 9.75008 45.1111 10.4759L45.5506 11.3741ZM71.73 13.715V13.215H71.23V13.715H71.73ZM72.495 30.815L72.1415 31.1686L72.1468 31.1739L72.1523 31.1791L72.495 30.815ZM78.165 31.535H78.665V31.035H78.165V31.535ZM78.165 35V35.5H78.665V35H78.165ZM67.635 13.715H68.135V13.215H67.635V13.715ZM64.44 13.715H63.94V14.215H64.44V13.715ZM64.44 10.34V9.84H63.94V10.34H64.44ZM67.635 10.34V10.84H68.135V10.34H67.635ZM67.635 4.13V3.63H67.135V4.13H67.635ZM71.73 4.13H72.23V3.63H71.73V4.13ZM71.73 10.34H71.23V10.84H71.73V10.34ZM78.165 10.34H78.665V9.84H78.165V10.34ZM78.165 13.715V14.215H78.665V13.715H78.165ZM71.23 13.715V28.25H72.23V13.715H71.23ZM71.23 28.25C71.23 29.4993 71.4918 30.5189 72.1415 31.1686L72.8486 30.4614C72.4782 30.0911 72.23 29.4007 72.23 28.25H71.23ZM72.1523 31.1791C72.8055 31.7938 73.8548 32.035 75.15 32.035V31.035C73.9252 31.035 73.2046 30.7962 72.8377 30.4509L72.1523 31.1791ZM75.15 32.035H78.165V31.035H75.15V32.035ZM77.665 31.535V35H78.665V31.535H77.665ZM78.165 34.5H74.475V35.5H78.165V34.5ZM74.475 34.5C72.2624 34.5 70.6961 33.9896 69.6838 33.0572L69.0063 33.7928C70.2739 34.9604 72.1277 35.5 74.475 35.5V34.5ZM69.6838 33.0572C68.6914 32.1433 68.135 30.586 68.135 28.25H67.135C67.135 30.714 67.7186 32.6067 69.0063 33.7928L69.6838 33.0572ZM68.135 28.25V13.715H67.135V28.25H68.135ZM67.635 13.215H64.44V14.215H67.635V13.215ZM64.94 13.715V10.34H63.94V13.715H64.94ZM64.44 10.84H67.635V9.84H64.44V10.84ZM68.135 10.34V4.13H67.135V10.34H68.135ZM67.635 4.63H71.73V3.63H67.635V4.63ZM71.23 4.13V10.34H72.23V4.13H71.23ZM71.73 10.84H78.165V9.84H71.73V10.84ZM77.665 10.34V13.715H78.665V10.34H77.665ZM78.165 13.215H71.73V14.215H78.165V13.215ZM100.407 11.105L100.169 11.545L100.176 11.5486L100.407 11.105ZM103.917 14.66L103.474 14.8936L103.478 14.9L103.917 14.66ZM105.222 35V35.5H105.722V35H105.222ZM101.172 35H100.672V35.5H101.172V35ZM99.3266 15.425L98.9608 15.7659L98.9648 15.77L99.3266 15.425ZM89.1116 15.47L88.7501 15.1245L88.7461 15.1288L89.1116 15.47ZM87.2216 35V35.5H87.7216V35H87.2216ZM83.1266 35H82.6266V35.5H83.1266V35ZM83.1266 1.7V1.2H82.6266V1.7H83.1266ZM87.2216 1.7H87.7216V1.2H87.2216V1.7ZM87.2216 13.85H86.7216V15.5524L87.6422 14.1204L87.2216 13.85ZM90.5516 10.925L90.3356 10.4741L90.3318 10.4759L90.5516 10.925ZM95.3666 10.39C97.1514 10.39 98.7485 10.7779 100.169 11.545L100.644 10.665C99.0647 9.81212 97.3018 9.39 95.3666 9.39V10.39ZM100.176 11.5486C101.58 12.2787 102.679 13.3874 103.475 14.8936L104.359 14.4264C103.474 12.7526 102.233 11.4913 100.637 10.6614L100.176 11.5486ZM103.478 14.9C104.299 16.3998 104.722 18.2476 104.722 20.465H105.722C105.722 18.1224 105.275 16.1002 104.355 14.42L103.478 14.9ZM104.722 20.465V35H105.722V20.465H104.722ZM105.222 34.5H101.172V35.5H105.222V34.5ZM101.672 35V21.05H100.672V35H101.672ZM101.672 21.05C101.672 18.511 101.036 16.4935 99.6885 15.08L98.9648 15.77C100.077 16.9365 100.672 18.669 100.672 21.05H101.672ZM99.6924 15.0841C98.3507 13.6443 96.5281 12.945 94.2866 12.945V13.945C96.3051 13.945 97.8425 14.5657 98.9608 15.7659L99.6924 15.0841ZM94.2866 12.945C92.0134 12.945 90.1495 13.6602 88.7501 15.1246L89.4731 15.8154C90.6538 14.5798 92.2398 13.945 94.2866 13.945V12.945ZM88.7461 15.1288C87.3705 16.6027 86.7216 18.7089 86.7216 21.365H87.7216C87.7216 18.8611 88.3328 17.0373 89.4771 15.8112L88.7461 15.1288ZM86.7216 21.365V35H87.7216V21.365H86.7216ZM87.2216 34.5H83.1266V35.5H87.2216V34.5ZM83.6266 35V1.7H82.6266V35H83.6266ZM83.1266 2.2H87.2216V1.2H83.1266V2.2ZM86.7216 1.7V13.85H87.7216V1.7H86.7216ZM87.6422 14.1204C88.4004 12.9409 89.4393 12.026 90.7714 11.3741L90.3318 10.4759C88.844 11.204 87.6628 12.2391 86.801 13.5796L87.6422 14.1204ZM90.7677 11.3759C92.1332 10.7216 93.6632 10.39 95.3666 10.39V9.39C93.53 9.39 91.85 9.74841 90.3356 10.4741L90.7677 11.3759ZM116.366 33.83L116.12 34.2654L116.123 34.2671L116.366 33.83ZM111.956 29.375L111.515 29.6121L111.52 29.6201L111.956 29.375ZM112.001 15.965L111.566 15.7176L111.565 15.7199L112.001 15.965ZM116.501 11.51L116.738 11.95L116.744 11.9471L116.501 11.51ZM129.191 11.51L128.948 11.9471L128.953 11.95L129.191 11.51ZM133.646 15.92L133.21 16.1651L133.213 16.1703L133.646 15.92ZM133.601 29.375L133.169 29.1226L133.168 29.1247L133.601 29.375ZM129.056 33.83L129.296 34.2687L129.296 34.2687L129.056 33.83ZM129.911 27.665L129.48 27.4119L129.476 27.419L129.911 27.665ZM126.896 14.525L126.656 14.9636L126.664 14.9679L126.896 14.525ZM118.661 14.525L118.897 14.9656L118.901 14.9635L118.661 14.525ZM115.691 17.585L116.13 17.8238L116.13 17.8238L115.691 17.585ZM115.646 27.71L115.202 27.9413L115.206 27.9488L115.646 27.71ZM118.616 30.815L118.371 31.2511L118.379 31.2556L118.616 30.815ZM122.666 34.905C120.435 34.905 118.419 34.3988 116.609 33.3929L116.123 34.2671C118.092 35.3612 120.277 35.905 122.666 35.905V34.905ZM116.612 33.3946C114.834 32.3909 113.428 30.9729 112.392 29.1299L111.52 29.6201C112.643 31.6171 114.178 33.1691 116.12 34.2654L116.612 33.3946ZM112.396 29.138C111.391 27.2712 110.881 25.1049 110.881 22.625H109.881C109.881 25.2451 110.421 27.5788 111.516 29.612L112.396 29.138ZM110.881 22.625C110.881 20.1783 111.404 18.0451 112.437 16.2101L111.565 15.7199C110.437 17.7249 109.881 20.0317 109.881 22.625H110.881ZM112.435 16.2123C113.501 14.3399 114.934 12.9235 116.738 11.95L116.263 11.07C114.287 12.1365 112.72 13.6901 111.566 15.7177L112.435 16.2123ZM116.744 11.9471C118.553 10.9417 120.584 10.435 122.846 10.435V9.435C120.428 9.435 118.228 9.9783 116.258 11.0729L116.744 11.9471ZM122.846 10.435C125.108 10.435 127.138 10.9417 128.948 11.9471L129.434 11.0729C127.463 9.9783 125.264 9.435 122.846 9.435V10.435ZM128.953 11.95C130.758 12.9239 132.175 14.3253 133.21 16.1651L134.082 15.6749C132.956 13.6747 131.404 12.1361 129.428 11.07L128.953 11.95ZM133.213 16.1703C134.273 18.0034 134.811 20.1495 134.811 22.625H135.811C135.811 20.0005 135.239 17.6766 134.079 15.6697L133.213 16.1703ZM134.811 22.625C134.811 25.098 134.259 27.2587 133.169 29.1227L134.032 29.6273C135.223 27.5913 135.811 25.252 135.811 22.625H134.811ZM133.168 29.1247C132.103 30.9666 130.654 32.3859 128.816 33.3913L129.296 34.2687C131.297 33.1741 132.878 31.6234 134.034 29.6253L133.168 29.1247ZM128.816 33.3913C126.975 34.3983 124.928 34.905 122.666 34.905V35.905C125.084 35.905 127.297 35.3617 129.296 34.2687L128.816 33.3913ZM122.666 32.305C124.218 32.305 125.679 31.9399 127.042 31.2109L126.57 30.3291C125.353 30.9801 124.054 31.305 122.666 31.305V32.305ZM127.042 31.2109C128.422 30.4724 129.523 29.3664 130.346 27.911L129.476 27.419C128.738 28.7236 127.769 29.6876 126.57 30.3291L127.042 31.2109ZM130.342 27.9181C131.207 26.4451 131.626 24.673 131.626 22.625H130.626C130.626 24.537 130.235 26.1249 129.48 27.4119L130.342 27.9181ZM131.626 22.625C131.626 20.58 131.223 18.8105 130.391 17.339L129.521 17.831C130.249 19.1195 130.626 20.71 130.626 22.625H131.626ZM130.391 17.339C129.569 15.8851 128.483 14.7918 127.128 14.0821L126.664 14.9679C127.829 15.5782 128.782 16.5249 129.521 17.831L130.391 17.339ZM127.136 14.0865C125.801 13.3552 124.353 12.99 122.801 12.99V13.99C124.189 13.99 125.471 14.3148 126.656 14.9635L127.136 14.0865ZM122.801 12.99C121.221 12.99 119.758 13.3543 118.421 14.0865L118.901 14.9635C120.084 14.3157 121.381 13.99 122.801 13.99V12.99ZM118.424 14.0844C117.098 14.7961 116.042 15.8917 115.251 17.3462L116.13 17.8238C116.84 16.5183 117.764 15.5739 118.897 14.9656L118.424 14.0844ZM115.251 17.3462C114.453 18.8162 114.066 20.5829 114.066 22.625H115.066C115.066 20.7071 115.429 19.1138 116.13 17.8238L115.251 17.3462ZM114.066 22.625C114.066 24.6928 114.436 26.4721 115.203 27.9413L116.089 27.4787C115.416 26.1879 115.066 24.5772 115.066 22.625H114.066ZM115.206 27.9488C115.996 29.4018 117.05 30.5098 118.371 31.2511L118.86 30.3789C117.722 29.7402 116.795 28.7781 116.085 27.4712L115.206 27.9488ZM118.379 31.2556C119.686 31.9567 121.118 32.305 122.666 32.305V31.305C121.274 31.305 120.006 30.9933 118.852 30.3744L118.379 31.2556ZM160 12.635L159.649 12.9914L159.652 12.9943L160 12.635ZM162.79 35V35.5H163.29V35H162.79ZM158.74 35H158.24V35.5H158.74V35ZM156.895 15.425L156.529 15.7659L156.533 15.77L156.895 15.425ZM146.68 15.47L146.318 15.1245L146.314 15.1288L146.68 15.47ZM144.79 35V35.5H145.29V35H144.79ZM140.695 35H140.195V35.5H140.695V35ZM140.695 10.34V9.84H140.195V10.34H140.695ZM144.79 10.34H145.29V9.84H144.79V10.34ZM144.79 13.85H144.29V15.5524L145.211 14.1204L144.79 13.85ZM148.075 10.925L147.855 10.4759L147.851 10.4778L148.075 10.925ZM152.71 10.39C155.6 10.39 157.897 11.2673 159.649 12.9914L160.351 12.2786C158.383 10.3427 155.82 9.39 152.71 9.39V10.39ZM159.652 12.9943C161.387 14.6727 162.29 17.1351 162.29 20.465H163.29C163.29 16.9549 162.333 14.1973 160.348 12.2757L159.652 12.9943ZM162.29 20.465V35H163.29V20.465H162.29ZM162.79 34.5H158.74V35.5H162.79V34.5ZM159.24 35V21.05H158.24V35H159.24ZM159.24 21.05C159.24 18.511 158.605 16.4935 157.257 15.08L156.533 15.77C157.645 16.9365 158.24 18.669 158.24 21.05H159.24ZM157.261 15.0841C155.919 13.6443 154.096 12.945 151.855 12.945V13.945C153.874 13.945 155.411 14.5657 156.529 15.7659L157.261 15.0841ZM151.855 12.945C149.582 12.945 147.718 13.6602 146.318 15.1246L147.041 15.8154C148.222 14.5798 149.808 13.945 151.855 13.945V12.945ZM146.314 15.1288C144.939 16.6027 144.29 18.7089 144.29 21.365H145.29C145.29 18.8611 145.901 17.0373 147.046 15.8112L146.314 15.1288ZM144.29 21.365V35H145.29V21.365H144.29ZM144.79 34.5H140.695V35.5H144.79V34.5ZM141.195 35V10.34H140.195V35H141.195ZM140.695 10.84H144.79V9.84H140.695V10.84ZM144.29 10.34V13.85H145.29V10.34H144.29ZM145.211 14.1204C145.97 12.9383 146.996 12.0233 148.299 11.3722L147.851 10.4778C146.394 11.2067 145.229 12.2417 144.369 13.5796L145.211 14.1204ZM148.295 11.3741C149.632 10.7199 151.101 10.39 152.71 10.39V9.39C150.959 9.39 149.338 9.75008 147.855 10.4759L148.295 11.3741ZM190.719 10.34L191.182 10.5294L191.464 9.84H190.719V10.34ZM175.869 46.61V47.11H176.205L176.332 46.7995L175.869 46.61ZM171.639 46.61L171.176 46.4207L170.894 47.11H171.639V46.61ZM176.499 34.73L176.962 34.9193L177.039 34.7303L176.962 34.5412L176.499 34.73ZM166.554 10.34V9.84H165.81L166.091 10.5288L166.554 10.34ZM171.099 10.34L171.565 10.1594L171.442 9.84H171.099V10.34ZM178.839 30.32L178.373 30.5006L178.842 31.7112L179.306 30.4988L178.839 30.32ZM186.489 10.34V9.84H186.145L186.022 10.1612L186.489 10.34ZM190.256 10.1505L175.406 46.4206L176.332 46.7995L191.182 10.5294L190.256 10.1505ZM175.869 46.11H171.639V47.11H175.869V46.11ZM172.102 46.7993L176.962 34.9193L176.036 34.5407L171.176 46.4207L172.102 46.7993ZM176.962 34.5412L167.017 10.1512L166.091 10.5288L176.036 34.9188L176.962 34.5412ZM166.554 10.84H171.099V9.84H166.554V10.84ZM170.633 10.5206L178.373 30.5006L179.305 30.1394L171.565 10.1594L170.633 10.5206ZM179.306 30.4988L186.956 10.5188L186.022 10.1612L178.372 30.1412L179.306 30.4988ZM186.489 10.84H190.719V9.84H186.489V10.84ZM230.593 12.725L230.141 12.9397L230.277 13.225H230.593V12.725ZM226.813 8.495L226.55 8.92033L226.555 8.92374L226.813 8.495ZM215.113 8.495L215.36 8.92959L215.362 8.92821L215.113 8.495ZM210.973 12.815L210.533 12.5775L210.531 12.5801L210.973 12.815ZM210.973 25.775L210.531 26.0099L210.534 26.0154L210.973 25.775ZM215.113 30.095L214.86 30.5264L214.869 30.5314L215.113 30.095ZM228.613 28.835L228.952 29.2022L228.952 29.2022L228.613 28.835ZM232.078 21.41L232.575 21.4626L232.633 20.91H232.078V21.41ZM219.568 21.41H219.068V21.91H219.568V21.41ZM219.568 18.08V17.58H219.068V18.08H219.568ZM236.443 18.08H236.943V17.58H236.443V18.08ZM236.443 21.23L236.941 21.2763L236.943 21.2532V21.23H236.443ZM234.013 28.34L234.432 28.6119L234.434 28.6092L234.013 28.34ZM228.568 33.425L228.808 33.8637L228.812 33.8613L228.568 33.425ZM213.088 33.245L212.838 33.6785L212.843 33.6808L213.088 33.245ZM207.373 27.53L206.938 27.7769L206.94 27.7809L207.373 27.53ZM207.373 11.06L206.939 10.8114L206.938 10.8131L207.373 11.06ZM213.088 5.345L213.333 5.78081L213.337 5.77845L213.088 5.345ZM229.873 5.75L229.601 6.16979L229.603 6.17122L229.873 5.75ZM235.498 12.725V13.225H236.229L235.964 12.5433L235.498 12.725ZM231.044 12.5103C230.134 10.5964 228.809 9.10967 227.07 8.06625L226.555 8.92374C228.116 9.86032 229.311 11.1936 230.141 12.9397L231.044 12.5103ZM227.076 8.0697C225.337 6.99478 223.323 6.465 221.053 6.465V7.465C223.162 7.465 224.989 7.95521 226.55 8.9203L227.076 8.0697ZM221.053 6.465C218.782 6.465 216.714 6.99488 214.863 8.06178L215.362 8.92821C217.051 7.95512 218.944 7.465 221.053 7.465V6.465ZM214.865 8.06042C213.038 9.10015 211.594 10.6113 210.533 12.5775L211.413 13.0525C212.392 11.2387 213.707 9.86984 215.36 8.92958L214.865 8.06042ZM210.531 12.5801C209.497 14.5236 208.988 16.7668 208.988 19.295H209.988C209.988 16.9032 210.469 14.8264 211.414 13.0499L210.531 12.5801ZM208.988 19.295C208.988 21.8232 209.497 24.0664 210.531 26.0099L211.414 25.5401C210.469 23.7636 209.988 21.6868 209.988 19.295H208.988ZM210.534 26.0154C211.595 27.9504 213.038 29.4582 214.86 30.5263L215.366 29.6637C213.708 28.6918 212.39 27.3196 211.411 25.5346L210.534 26.0154ZM214.869 30.5314C216.719 31.5664 218.784 32.08 221.053 32.08V31.08C218.941 31.08 217.046 30.6036 215.357 29.6586L214.869 30.5314ZM221.053 32.08C224.22 32.08 226.867 31.1292 228.952 29.2022L228.273 28.4678C226.398 30.2008 224.005 31.08 221.053 31.08V32.08ZM228.952 29.2022C231.035 27.2767 232.234 24.6822 232.575 21.4626L231.58 21.3574C231.261 24.3778 230.15 26.7333 228.273 28.4678L228.952 29.2022ZM232.078 20.91H219.568V21.91H232.078V20.91ZM220.068 21.41V18.08H219.068V21.41H220.068ZM219.568 18.58H236.443V17.58H219.568V18.58ZM235.943 18.08V21.23H236.943V18.08H235.943ZM235.945 21.1837C235.712 23.6853 234.928 25.9787 233.591 28.0708L234.434 28.6092C235.857 26.3813 236.693 23.9347 236.941 21.2763L235.945 21.1837ZM233.593 28.0681C232.258 30.1288 230.504 31.7678 228.323 32.9887L228.812 33.8613C231.132 32.5622 233.007 30.8112 234.432 28.6119L233.593 28.0681ZM228.328 32.9863C226.157 34.173 223.735 34.77 221.053 34.77V35.77C223.89 35.77 226.478 35.137 228.808 33.8637L228.328 32.9863ZM221.053 34.77C218.223 34.77 215.654 34.1147 213.333 32.8092L212.843 33.6808C215.322 35.0753 218.062 35.77 221.053 35.77V34.77ZM213.337 32.8115C211.014 31.4759 209.172 29.6344 207.805 27.2791L206.94 27.7809C208.394 30.2856 210.361 32.2541 212.838 33.6785L213.337 32.8115ZM207.807 27.2831C206.474 24.9354 205.803 22.2769 205.803 19.295H204.803C204.803 22.4331 205.511 25.2646 206.938 27.7769L207.807 27.2831ZM205.803 19.295C205.803 16.3131 206.474 13.6546 207.807 11.3069L206.938 10.8131C205.511 13.3254 204.803 16.1569 204.803 19.295H205.803ZM207.806 11.3086C209.173 8.92446 211.014 7.08521 213.333 5.78079L212.843 4.90921C210.362 6.30479 208.392 8.27554 206.939 10.8114L207.806 11.3086ZM213.337 5.77845C215.657 4.44431 218.225 3.775 221.053 3.775V2.775C218.06 2.775 215.318 3.48568 212.838 4.91155L213.337 5.77845ZM221.053 3.775C224.296 3.775 227.14 4.57715 229.601 6.16978L230.144 5.33021C227.506 3.62285 224.469 2.775 221.053 2.775V3.775ZM229.603 6.17122C232.089 7.76113 233.898 9.9999 235.032 12.9067L235.964 12.5433C234.757 9.4501 232.816 7.03886 230.142 5.32877L229.603 6.17122ZM235.498 12.225H230.593V13.225H235.498V12.225ZM241.992 5.525L242.346 5.17145L242.346 5.17145L241.992 5.525ZM241.992 1.565L242.346 1.91855L242.346 1.91855L241.992 1.565ZM245.862 1.565L245.499 1.90831L245.503 1.9135L245.509 1.91855L245.862 1.565ZM245.862 5.525L245.509 5.17145L245.503 5.17649L245.499 5.18169L245.862 5.525ZM245.952 10.34H246.452V9.84H245.952V10.34ZM245.952 35V35.5H246.452V35H245.952ZM241.857 35H241.357V35.5H241.857V35ZM241.857 10.34V9.84H241.357V10.34H241.857ZM243.972 5.835C243.322 5.835 242.79 5.61545 242.346 5.17145L241.639 5.87855C242.275 6.51454 243.063 6.835 243.972 6.835V5.835ZM242.346 5.17145C241.902 4.72744 241.682 4.19557 241.682 3.545H240.682C240.682 4.45443 241.003 5.24256 241.639 5.87855L242.346 5.17145ZM241.682 3.545C241.682 2.89443 241.902 2.36256 242.346 1.91855L241.639 1.21145C241.003 1.84744 240.682 2.63557 240.682 3.545H241.682ZM242.346 1.91855C242.79 1.47454 243.322 1.255 243.972 1.255V0.254998C243.063 0.254998 242.275 0.575454 241.639 1.21145L242.346 1.91855ZM243.972 1.255C244.586 1.255 245.084 1.46942 245.499 1.90831L246.226 1.22169C245.62 0.580576 244.858 0.254998 243.972 0.254998V1.255ZM245.509 1.91855C245.953 2.36256 246.172 2.89443 246.172 3.545H247.172C247.172 2.63557 246.852 1.84744 246.216 1.21145L245.509 1.91855ZM246.172 3.545C246.172 4.19557 245.953 4.72744 245.509 5.17145L246.216 5.87855C246.852 5.24256 247.172 4.45443 247.172 3.545H246.172ZM245.499 5.18169C245.084 5.62058 244.586 5.835 243.972 5.835V6.835C244.858 6.835 245.62 6.50942 246.226 5.86831L245.499 5.18169ZM245.452 10.34V35H246.452V10.34H245.452ZM245.952 34.5H241.857V35.5H245.952V34.5ZM242.357 35V10.34H241.357V35H242.357ZM241.857 10.84H245.952V9.84H241.857V10.84ZM274.801 10.34H275.301V9.84H274.801V10.34ZM274.801 35V35.5H275.301V35H274.801ZM270.706 35H270.206V35.5H270.706V35ZM270.706 31.355H271.206V29.5974L270.281 31.0918L270.706 31.355ZM267.421 34.325L267.645 34.7722L267.649 34.7703L267.421 34.325ZM257.656 34.19L257.422 34.6319L257.429 34.6355L257.656 34.19ZM254.011 30.59L253.573 30.83L253.576 30.8363L254.011 30.59ZM252.706 10.34V9.84H252.206V10.34H252.706ZM256.756 10.34H257.256V9.84H256.756V10.34ZM258.601 29.87L258.235 30.2109L258.239 30.215L258.601 29.87ZM268.816 29.78L268.451 29.4388L268.451 29.4388L268.816 29.78ZM270.706 10.34V9.84H270.206V10.34H270.706ZM274.301 10.34V35H275.301V10.34H274.301ZM274.801 34.5H270.706V35.5H274.801V34.5ZM271.206 35V31.355H270.206V35H271.206ZM270.281 31.0918C269.553 32.2689 268.528 33.1983 267.194 33.8797L267.649 34.7703C269.134 34.0117 270.3 32.9611 271.131 31.6182L270.281 31.0918ZM267.198 33.8778C265.893 34.5301 264.441 34.86 262.831 34.86V35.86C264.582 35.86 266.189 35.4999 267.645 34.7722L267.198 33.8778ZM262.831 34.86C260.981 34.86 259.335 34.4846 257.883 33.7445L257.429 34.6355C259.037 35.4554 260.842 35.86 262.831 35.86V34.86ZM257.89 33.7481C256.449 32.9853 255.302 31.8555 254.446 30.3437L253.576 30.8363C254.52 32.5045 255.803 33.7747 257.422 34.6319L257.89 33.7481ZM254.45 30.35C253.629 28.8502 253.206 27.0024 253.206 24.785H252.206C252.206 27.1276 252.653 29.1498 253.573 30.83L254.45 30.35ZM253.206 24.785V10.34H252.206V24.785H253.206ZM252.706 10.84H256.756V9.84H252.706V10.84ZM256.256 10.34V24.245H257.256V10.34H256.256ZM256.256 24.245C256.256 26.7568 256.893 28.7701 258.236 30.2109L258.967 29.5291C257.85 28.3299 257.256 26.5932 257.256 24.245H256.256ZM258.239 30.215C259.582 31.6231 261.403 32.305 263.641 32.305V31.305C261.619 31.305 260.081 30.6969 258.963 29.525L258.239 30.215ZM263.641 32.305C265.942 32.305 267.81 31.5913 269.182 30.1212L268.451 29.4388C267.303 30.6687 265.721 31.305 263.641 31.305V32.305ZM269.182 30.1212C270.557 28.6473 271.206 26.5411 271.206 23.885H270.206C270.206 26.3889 269.595 28.2127 268.451 29.4388L269.182 30.1212ZM271.206 23.885V10.34H270.206V23.885H271.206ZM270.706 10.84H274.801V9.84H270.706V10.84ZM301.02 12.635L300.67 12.9914L300.673 12.9943L301.02 12.635ZM303.81 35V35.5H304.31V35H303.81ZM299.76 35H299.26V35.5H299.76V35ZM297.915 15.425L297.55 15.7659L297.554 15.77L297.915 15.425ZM287.7 15.47L287.339 15.1245L287.335 15.1288L287.7 15.47ZM285.81 35V35.5H286.31V35H285.81ZM281.715 35H281.215V35.5H281.715V35ZM281.715 10.34V9.84H281.215V10.34H281.715ZM285.81 10.34H286.31V9.84H285.81V10.34ZM285.81 13.85H285.31V15.5524L286.231 14.1204L285.81 13.85ZM289.095 10.925L288.876 10.4759L288.872 10.4778L289.095 10.925ZM293.73 10.39C296.621 10.39 298.917 11.2673 300.67 12.9914L301.371 12.2786C299.404 10.3427 296.84 9.39 293.73 9.39V10.39ZM300.673 12.9943C302.407 14.6727 303.31 17.1351 303.31 20.465H304.31C304.31 16.9549 303.354 14.1973 301.368 12.2757L300.673 12.9943ZM303.31 20.465V35H304.31V20.465H303.31ZM303.81 34.5H299.76V35.5H303.81V34.5ZM300.26 35V21.05H299.26V35H300.26ZM300.26 21.05C300.26 18.511 299.625 16.4935 298.277 15.08L297.554 15.77C298.666 16.9365 299.26 18.669 299.26 21.05H300.26ZM298.281 15.0841C296.94 13.6443 295.117 12.945 292.875 12.945V13.945C294.894 13.945 296.431 14.5657 297.55 15.7659L298.281 15.0841ZM292.875 12.945C290.602 12.945 288.738 13.6602 287.339 15.1246L288.062 15.8154C289.243 14.5798 290.829 13.945 292.875 13.945V12.945ZM287.335 15.1288C285.959 16.6027 285.31 18.7089 285.31 21.365H286.31C286.31 18.8611 286.922 17.0373 288.066 15.8112L287.335 15.1288ZM285.31 21.365V35H286.31V21.365H285.31ZM285.81 34.5H281.715V35.5H285.81V34.5ZM282.215 35V10.34H281.215V35H282.215ZM281.715 10.84H285.81V9.84H281.715V10.84ZM285.31 10.34V13.85H286.31V10.34H285.31ZM286.231 14.1204C286.991 12.9383 288.017 12.0233 289.319 11.3722L288.872 10.4778C287.414 11.2067 286.25 12.2417 285.39 13.5796L286.231 14.1204ZM289.315 11.3741C290.652 10.7199 292.121 10.39 293.73 10.39V9.39C291.98 9.39 290.359 9.75008 288.876 10.4759L289.315 11.3741ZM315.495 13.715V13.215H314.995V13.715H315.495ZM316.26 30.815L315.906 31.1686L315.911 31.1739L315.917 31.1791L316.26 30.815ZM321.93 31.535H322.43V31.035H321.93V31.535ZM321.93 35V35.5H322.43V35H321.93ZM311.4 13.715H311.9V13.215H311.4V13.715ZM308.205 13.715H307.705V14.215H308.205V13.715ZM308.205 10.34V9.84H307.705V10.34H308.205ZM311.4 10.34V10.84H311.9V10.34H311.4ZM311.4 4.13V3.63H310.9V4.13H311.4ZM315.495 4.13H315.995V3.63H315.495V4.13ZM315.495 10.34H314.995V10.84H315.495V10.34ZM321.93 10.34H322.43V9.84H321.93V10.34ZM321.93 13.715V14.215H322.43V13.715H321.93ZM314.995 13.715V28.25H315.995V13.715H314.995ZM314.995 28.25C314.995 29.4993 315.256 30.5189 315.906 31.1686L316.613 30.4614C316.243 30.0911 315.995 29.4007 315.995 28.25H314.995ZM315.917 31.1791C316.57 31.7938 317.619 32.035 318.915 32.035V31.035C317.69 31.035 316.969 30.7962 316.602 30.4509L315.917 31.1791ZM318.915 32.035H321.93V31.035H318.915V32.035ZM321.43 31.535V35H322.43V31.535H321.43ZM321.93 34.5H318.24V35.5H321.93V34.5ZM318.24 34.5C316.027 34.5 314.461 33.9896 313.448 33.0572L312.771 33.7928C314.039 34.9604 315.892 35.5 318.24 35.5V34.5ZM313.448 33.0572C312.456 32.1433 311.9 30.586 311.9 28.25H310.9C310.9 30.714 311.483 32.6067 312.771 33.7928L313.448 33.0572ZM311.9 28.25V13.715H310.9V28.25H311.9ZM311.4 13.215H308.205V14.215H311.4V13.215ZM308.705 13.715V10.34H307.705V13.715H308.705ZM308.205 10.84H311.4V9.84H308.205V10.84ZM311.9 10.34V4.13H310.9V10.34H311.9ZM311.4 4.63H315.495V3.63H311.4V4.63ZM314.995 4.13V10.34H315.995V4.13H314.995ZM315.495 10.84H321.93V9.84H315.495V10.84ZM321.43 10.34V13.715H322.43V10.34H321.43ZM321.93 13.215H315.495V14.215H321.93V13.215ZM326.891 15.965L327.331 16.2025L327.333 16.1996L326.891 15.965ZM331.076 11.51L330.824 11.0781L330.821 11.08L331.076 11.51ZM342.686 11.33L342.434 11.7616L342.434 11.7616L342.686 11.33ZM346.241 14.84L345.804 15.082L346.741 14.84H346.241ZM346.241 10.34V9.84H345.741V10.34H346.241ZM350.381 10.34H350.881V9.84H350.381V10.34ZM350.381 35V35.5H350.881V35H350.381ZM346.241 35H345.741V35.5H346.241V35ZM346.241 30.41H346.741V28.5012L345.805 30.1649L346.241 30.41ZM342.596 34.01L342.849 34.4416L342.851 34.4401L342.596 34.01ZM331.076 33.785L330.816 34.2118L330.816 34.2118L331.076 33.785ZM326.891 29.24L327.334 29.0083L327.334 29.0083L326.891 29.24ZM342.056 14.615L341.8 15.0448L341.813 15.0516L342.056 14.615ZM333.686 14.57L333.438 14.1359L333.438 14.1359L333.686 14.57ZM330.671 17.72L331.111 17.9588L331.111 17.9588L330.671 17.72ZM330.671 27.53L330.23 27.7648L330.232 27.7688L330.671 27.53ZM333.686 30.725L333.43 31.1547L333.438 31.1591L333.686 30.725ZM342.056 30.725L342.304 31.1591L342.308 31.1573L342.056 30.725ZM345.116 27.53L345.556 27.7688L345.558 27.7648L345.116 27.53ZM325.861 22.58C325.861 20.1285 326.357 18.0078 327.331 16.2025L326.451 15.7275C325.386 17.7022 324.861 19.9915 324.861 22.58H325.861ZM327.333 16.1996C328.312 14.3558 329.645 12.9405 331.331 11.94L330.821 11.08C328.968 12.1795 327.51 13.7342 326.45 15.7304L327.333 16.1996ZM331.328 11.9419C333.048 10.9388 334.955 10.435 337.061 10.435V9.435C334.787 9.435 332.705 9.9812 330.824 11.0781L331.328 11.9419ZM337.061 10.435C339.148 10.435 340.933 10.8836 342.434 11.7616L342.939 10.8984C341.26 9.9164 339.295 9.435 337.061 9.435V10.435ZM342.434 11.7616C343.958 12.6528 345.073 13.7614 345.804 15.082L346.679 14.598C345.849 13.0986 344.595 11.8672 342.939 10.8984L342.434 11.7616ZM346.741 14.84V10.34H345.741V14.84H346.741ZM346.241 10.84H350.381V9.84H346.241V10.84ZM349.881 10.34V35H350.881V10.34H349.881ZM350.381 34.5H346.241V35.5H350.381V34.5ZM346.741 35V30.41H345.741V35H346.741ZM345.805 30.1649C345.044 31.5182 343.897 32.6582 342.341 33.5799L342.851 34.4401C344.536 33.4418 345.818 32.1818 346.677 30.6551L345.805 30.1649ZM342.344 33.5784C340.842 34.457 339.072 34.905 337.016 34.905V35.905C339.221 35.905 341.171 35.423 342.849 34.4416L342.344 33.5784ZM337.016 34.905C334.913 34.905 333.024 34.3876 331.337 33.3582L330.816 34.2118C332.669 35.3424 334.74 35.905 337.016 35.905V34.905ZM331.337 33.3582C329.649 32.3284 328.315 30.883 327.334 29.0083L326.448 29.4717C327.508 31.497 328.964 33.0816 330.816 34.2118L331.337 33.3582ZM327.334 29.0083C326.356 27.1387 325.861 25 325.861 22.58H324.861C324.861 25.14 325.386 27.4413 326.448 29.4717L327.334 29.0083ZM346.741 22.625C346.741 20.697 346.352 18.9919 345.556 17.5262L344.677 18.0038C345.38 19.2981 345.741 20.833 345.741 22.625H346.741ZM345.556 17.5262C344.763 16.0686 343.678 14.9475 342.3 14.1784L341.813 15.0516C343.015 15.7225 343.969 16.7014 344.677 18.0038L345.556 17.5262ZM342.312 14.1854C340.971 13.3873 339.487 12.99 337.871 12.99V13.99C339.315 13.99 340.621 14.3427 341.801 15.0446L342.312 14.1854ZM337.871 12.99C336.259 12.99 334.778 13.3703 333.438 14.1359L333.934 15.0041C335.115 14.3297 336.423 13.99 337.871 13.99V12.99ZM333.438 14.1359C332.091 14.9058 331.023 16.0266 330.232 17.4812L331.111 17.9588C331.82 16.6534 332.762 15.6742 333.934 15.0041L333.438 14.1359ZM330.232 17.4812C329.435 18.9469 329.046 20.652 329.046 22.58H330.046C330.046 20.788 330.407 19.2531 331.111 17.9588L330.232 17.4812ZM329.046 22.58C329.046 24.5369 329.435 26.2703 330.23 27.7648L331.113 27.2952C330.408 25.9697 330.046 24.4031 330.046 22.58H329.046ZM330.232 27.7688C331.022 29.2219 332.088 30.3554 333.431 31.1546L333.942 30.2954C332.765 29.5946 331.821 28.5981 331.111 27.2912L330.232 27.7688ZM333.438 31.1591C334.778 31.9247 336.259 32.305 337.871 32.305V31.305C336.423 31.305 335.115 30.9653 333.934 30.2909L333.438 31.1591ZM337.871 32.305C339.483 32.305 340.965 31.9247 342.304 31.1591L341.808 30.2909C340.628 30.9653 339.319 31.305 337.871 31.305V32.305ZM342.308 31.1573C343.681 30.3587 344.764 29.2248 345.556 27.7688L344.677 27.2912C343.968 28.5952 343.012 29.5913 341.805 30.2927L342.308 31.1573ZM345.558 27.7648C346.352 26.2714 346.741 24.5534 346.741 22.625H345.741C345.741 24.4166 345.38 25.9686 344.675 27.2952L345.558 27.7648Z" fill="#353535"/>
</g>
<defs>
<filter id="filter0_d" x="0.934723" y="0.255005" width="353.947" height="54.855" filterUnits="userSpaceOnUse" color-interpolation-filters="sRGB">
<feFlood flood-opacity="0" result="BackgroundImageFix"/>
<feColorMatrix in="SourceAlpha" type="matrix" values="0 0 0 0 0 0 0 0 0 0 0 0 0 0 0 0 0 0 127 0"/>
<feOffset dy="4"/>
<feGaussianBlur stdDeviation="2"/>
<feColorMatrix type="matrix" values="0 0 0 0 0 0 0 0 0 0 0 0 0 0 0 0 0 0 0.25 0"/>
<feBlend mode="normal" in2="BackgroundImageFix" result="effect1_dropShadow"/>
<feBlend mode="normal" in="SourceGraphic" in2="effect1_dropShadow" result="shape"/>
</filter>
</defs>
</svg>
