<?xml version="1.0" standalone="no"?>
<!DOCTYPE svg PUBLIC "-//W3C//DTD SVG 20010904//EN"
 "http://www.w3.org/TR/2001/REC-SVG-20010904/DTD/svg10.dtd">
<svg version="1.0" xmlns="http://www.w3.org/2000/svg"
 width="300.000000pt" height="300.000000pt" viewBox="0 0 300.000000 300.000000"
 preserveAspectRatio="xMidYMid meet">
<metadata>
Created by potrace 1.10, written by Peter Selinger 2001-2011
</metadata>
<g transform="translate(0.000000,300.000000) scale(0.100000,-0.100000)"
fill="#000000" stroke="none">
<path d="M1491 2752 c-19 -9 -44 -29 -54 -44 -25 -34 -27 -106 -3 -142 16 -26
16 -26 -11 -26 -16 0 -41 -7 -57 -15 -37 -19 -36 -20 -36 14 0 75 -47 127
-122 137 -109 14 -186 -104 -133 -205 l15 -31 -38 -15 c-21 -9 -46 -29 -56
-46 l-18 -30 -21 43 c-54 105 -182 119 -248 26 -33 -46 -31 -115 4 -161 l26
-35 -36 -7 c-46 -8 -97 -47 -117 -88 -17 -37 -24 -106 -12 -125 4 -7 -7 -4
-26 8 -45 27 -106 26 -149 -3 -42 -28 -59 -60 -59 -112 0 -98 98 -162 194
-126 24 10 24 9 14 -20 -17 -49 -5 -135 22 -164 13 -14 19 -25 14 -25 -11 0
34 -24 72 -38 l29 -10 -28 -1 c-42 -1 -85 -36 -98 -80 -10 -33 -8 -44 12 -89
16 -35 28 -48 38 -45 13 4 12 2 -1 -6 -9 -6 -22 -27 -28 -45 -9 -28 -8 -40 4
-65 14 -26 48 -48 68 -43 4 1 5 -5 2 -13 -4 -8 -9 -15 -13 -15 -26 0 -40 -105
-21 -156 23 -59 102 -101 168 -88 45 9 100 59 113 103 l11 39 37 -25 c43 -30
100 -27 136 7 l22 21 22 -36 c38 -65 120 -82 181 -37 51 38 65 95 37 152 -15
28 -15 31 -1 19 40 -33 84 -164 87 -259 1 -48 -14 -287 -33 -515 -11 -126 -22
-254 -24 -282 -2 -29 -1 -53 3 -53 4 0 17 129 30 288 12 158 27 323 32 367 28
240 -4 373 -121 515 l-51 61 -30 -25 c-84 -71 -214 -43 -253 54 -23 57 -20
108 8 155 23 37 23 42 10 74 -8 18 -14 35 -14 36 0 1 16 -5 35 -13 23 -11 30
-19 23 -23 -7 -5 -16 -3 -20 4 -4 7 -6 2 -5 -11 0 -12 2 -22 3 -22 0 0 16 7
34 17 124 62 270 -58 230 -189 l-12 -43 70 -65 c39 -36 84 -82 100 -103 l30
-37 7 96 c14 182 1 247 -87 439 -38 82 -45 93 -63 87 -45 -16 -114 -6 -157 24
-24 15 -47 27 -51 26 -5 -1 -6 2 -3 7 3 5 -2 23 -10 41 -37 74 1 186 77 229
48 28 132 28 175 2 99 -60 123 -196 48 -276 l-24 -26 62 -122 63 -121 7 99
c11 158 28 332 33 347 3 8 -14 22 -45 36 -159 74 -120 311 55 337 100 16 205
-77 205 -179 -1 -74 -67 -159 -134 -171 -33 -7 -33 -7 -39 -73 -11 -130 -30
-602 -25 -608 6 -5 52 28 265 190 l90 69 -10 34 c-12 38 1 87 34 134 41 59
140 76 210 37 88 -49 110 -163 48 -242 -27 -34 -89 -66 -129 -66 -39 0 -102
32 -128 65 l-20 25 -118 -108 c-66 -60 -147 -135 -181 -168 l-63 -60 0 -133 0
-133 34 29 c18 17 58 44 88 61 42 24 57 39 61 61 8 39 52 89 94 106 50 21 102
18 147 -8 112 -63 108 -231 -8 -286 -49 -24 -93 -27 -139 -7 -37 15 -84 66
-93 101 -6 23 -7 23 -78 -26 -114 -77 -107 -53 -91 -284 24 -348 55 -599 77
-620 7 -7 9 -4 4 10 -13 46 -45 309 -52 420 -3 66 -8 129 -10 140 -3 11 -7 72
-11 135 l-6 115 49 38 c26 21 58 40 71 43 13 4 20 10 17 15 -3 5 0 9 6 9 6 0
14 -8 17 -17 4 -10 18 -30 31 -45 80 -90 227 -74 293 33 l23 38 21 -19 c41
-39 154 -15 155 32 1 7 7 1 16 -14 16 -30 61 -58 93 -58 75 0 121 83 87 160
-5 12 4 15 46 16 46 1 55 5 84 37 45 48 52 94 24 151 -16 33 -32 50 -59 62
-38 17 -38 17 -23 44 l16 27 30 -18 c85 -52 191 7 188 104 -3 65 -45 117 -95
117 -24 0 -28 3 -19 12 21 21 14 84 -12 113 -39 42 -126 31 -142 -17 -3 -10
-10 -18 -16 -18 -5 0 -7 7 -4 16 3 9 2 12 -5 9 -5 -4 -16 -2 -24 5 -11 9 -9
15 11 35 43 43 29 115 -29 139 -27 11 -36 11 -62 -2 -16 -8 -36 -22 -42 -31
-9 -11 -15 -13 -20 -5 -26 37 -98 41 -135 7 -17 -15 -18 -15 -18 10 0 14 -11
39 -25 55 l-25 30 32 6 c18 3 42 16 55 28 l23 21 0 -20 c0 -26 46 -83 66 -83
9 0 13 -3 11 -7 -10 -16 59 -7 90 12 87 52 72 170 -26 205 -40 14 -44 14 -81
-8 -28 -15 -38 -18 -34 -8 3 8 1 23 -4 33 -9 16 -5 18 45 16 58 -1 71 6 106
59 48 76 -23 187 -113 175 -34 -4 -39 -2 -43 17 -3 14 -4 12 -3 -5 1 -15 -5
-31 -13 -36 -14 -9 -16 -3 -13 48 5 74 -25 127 -85 150 -34 13 -123 10 -142
-5 -12 -9 -12 -8 -3 11 30 55 3 142 -50 164 -94 39 -177 -22 -165 -121 l6 -48
-52 2 c-29 1 -61 -2 -72 -7 -17 -8 -16 -6 5 17 20 22 24 37 24 81 0 61 -24 97
-81 121 -42 18 -61 18 -102 -4z m128 -28 c51 -43 58 -118 14 -167 -73 -81
-203 -30 -203 80 0 97 114 150 189 87z m304 -25 c31 -14 57 -59 57 -99 0 -23
-10 -42 -35 -67 -32 -32 -40 -35 -77 -30 -25 3 -51 15 -65 30 -15 14 -27 40
-30 65 -5 37 -2 45 30 77 37 37 74 45 120 24z m-689 -43 c91 -38 110 -145 38
-209 -49 -44 -150 -27 -185 32 -37 64 -5 154 63 178 45 15 45 15 84 -1z m924
-160 c34 -34 37 -41 37 -96 0 -55 -3 -62 -37 -96 -29 -30 -45 -38 -85 -41
-112 -10 -190 110 -133 205 50 82 151 95 218 28z m-389 20 c86 -45 86 -177 0
-222 -92 -47 -203 34 -184 135 10 53 65 101 116 101 22 0 53 -7 68 -14z m-283
-12 c108 -52 93 -216 -24 -255 -68 -22 -138 13 -166 82 -48 118 73 228 190
173z m94 -45 c-12 -21 -12 -21 -29 7 -18 29 -18 29 8 34 30 6 38 -9 21 -41z
m360 34 c0 -1 -7 -9 -16 -17 -18 -19 -23 -118 -7 -138 9 -10 1 -13 -41 -13
l-53 -1 14 26 c17 33 16 78 -2 114 -8 15 -15 29 -15 30 0 2 120 1 120 -1z
m-1066 -37 c101 -42 104 -180 6 -231 -16 -8 -42 -15 -58 -15 -35 0 -92 37
-109 70 -31 61 -1 149 60 175 41 18 60 18 101 1z m398 -39 c-6 -7 -9 -23 -5
-35 3 -14 1 -22 -8 -22 -8 0 -6 -5 6 -13 11 -9 15 -19 10 -27 -5 -8 -4 -11 3
-6 6 3 13 -3 17 -14 9 -29 64 -64 110 -70 l41 -5 -22 -33 -23 -33 -16 30 c-21
41 -68 65 -115 58 l-37 -5 5 44 c3 32 -1 52 -17 79 -19 33 -19 36 -3 41 9 3
26 9 37 14 28 12 29 12 17 -3z m-88 -28 c58 -51 61 -128 6 -179 -41 -39 -84
-45 -136 -20 -83 40 -97 135 -29 198 49 45 109 45 159 1z m406 -63 c0 -6 17
-22 38 -35 20 -12 29 -20 19 -17 -10 3 -38 6 -62 6 l-42 0 16 34 c15 32 31 39
31 12z m771 -5 c52 -53 39 -135 -28 -166 -42 -20 -83 -13 -116 21 -31 31 -39
70 -22 110 29 69 114 87 166 35z m-1368 -99 c10 -10 14 -22 10 -25 -3 -4 1 -7
10 -7 10 0 17 -4 17 -10 0 -5 -6 -10 -14 -10 -7 0 -28 -14 -46 -31 -30 -29
-32 -35 -28 -86 3 -30 10 -58 17 -63 8 -4 -4 -10 -30 -14 -24 -4 -50 -12 -58
-19 -11 -9 -10 -5 2 20 24 45 21 108 -5 154 -12 22 -25 39 -30 39 -21 0 -4 19
33 35 43 20 88 66 90 93 1 9 5 0 9 -20 4 -21 14 -46 23 -56z m938 78 c25 -14
49 -62 49 -99 0 -92 -142 -128 -190 -48 -32 51 -23 101 24 139 23 20 87 24
117 8z m244 -49 c0 -37 -3 -47 -12 -39 -16 13 -103 14 -111 2 -4 -5 -19 -17
-34 -27 l-27 -17 3 28 c1 15 -1 35 -6 44 -7 15 -4 17 19 12 68 -13 108 -8 140
21 15 13 28 25 28 25 0 0 0 -22 0 -49z m-412 2 c-5 -2 -8 -18 -7 -36 l2 -32
-29 33 c-16 17 -33 32 -38 32 -6 0 -13 5 -16 11 -5 7 3 9 21 6 16 -2 38 -1 49
3 12 4 22 3 24 -3 2 -6 0 -12 -6 -14z m-427 -32 c20 -12 37 -34 44 -55 10 -31
9 -42 -8 -74 -27 -52 -76 -70 -125 -47 -22 10 -42 30 -52 52 -23 48 -4 101 45
125 44 23 58 22 96 -1z m814 -27 c100 -40 106 -179 9 -230 -79 -40 -179 20
-179 108 0 54 29 103 72 122 43 19 50 19 98 0z m-1333 -22 c115 -82 54 -267
-87 -267 -55 0 -91 21 -128 76 -44 64 -14 165 60 203 43 22 116 16 155 -12z
m357 -22 c-8 -36 12 -87 37 -101 27 -14 24 -25 -10 -39 -91 -37 -143 -158
-106 -247 12 -29 12 -32 -3 -31 -36 3 -95 -2 -90 -8 4 -3 -7 -18 -23 -33 -16
-16 -29 -38 -29 -50 0 -11 -6 -21 -12 -21 -9 0 -10 -3 -2 -8 6 -4 13 -17 16
-29 5 -20 4 -21 -14 -12 -11 6 -36 9 -54 7 -38 -4 -39 -3 -19 32 8 14 14 48
15 76 l0 51 38 -7 c54 -9 98 5 127 44 32 43 35 111 4 150 l-20 26 28 0 c46 0
87 32 102 79 11 37 10 47 -6 78 -10 21 -24 39 -32 41 -10 3 -7 -5 7 -23 38
-48 23 -124 -29 -151 -45 -23 -78 -17 -115 20 -45 45 -46 91 -5 135 28 30 33
32 98 29 45 -2 72 1 81 9 20 19 22 16 16 -17z m644 -54 c-2 -1 -10 -7 -19 -14
-14 -10 -16 -8 -17 19 -1 30 0 30 19 13 10 -9 18 -18 17 -18z m146 7 c-4 -14
-11 -20 -20 -16 -13 5 -12 8 2 24 21 23 25 21 18 -8z m-13 -42 c39 -39 41
-106 5 -148 -21 -25 -31 -28 -81 -28 -50 0 -60 3 -81 28 -36 42 -34 109 5 148
24 24 38 29 76 29 38 0 52 -5 76 -29z m450 0 c47 -47 36 -121 -23 -155 -40
-24 -89 -14 -122 25 -30 35 -33 67 -11 109 19 37 41 49 88 50 29 0 45 -7 68
-29z m-1000 -23 c15 -58 49 -100 96 -122 38 -17 40 -19 36 -59 -3 -23 -10
-114 -17 -202 l-12 -160 -48 98 c-48 96 -48 98 -29 115 39 34 56 137 32 199
-13 36 -64 88 -100 103 l-28 12 27 28 c15 15 28 28 29 29 1 1 7 -18 14 -41z
m-870 -33 c63 -33 86 -112 49 -172 -50 -82 -160 -82 -210 0 -36 59 -18 130 43
167 39 24 78 25 118 5z m446 -46 c94 -35 110 -151 29 -200 -83 -51 -188 16
-172 109 6 41 30 70 71 88 37 16 37 16 72 3z m793 -36 c0 -6 12 -20 27 -31
l28 -20 -35 -14 c-34 -14 -35 -14 -38 11 -2 14 -13 33 -24 43 -20 17 -20 19
-3 38 17 19 19 19 31 2 7 -9 14 -22 14 -29z m254 38 c3 -5 -3 -11 -14 -14 -20
-5 -26 3 -13 16 9 10 21 9 27 -2z m-1391 -59 c-4 -13 -3 -14 5 -3 7 10 14 10
30 2 33 -18 104 -13 140 9 32 20 33 20 22 1 -5 -11 -10 -33 -10 -50 0 -32 -8
-39 -26 -21 -6 6 -33 13 -61 16 -39 5 -61 2 -99 -15 -27 -12 -43 -16 -36 -10
6 7 12 35 12 62 0 42 2 48 14 37 8 -6 12 -19 9 -28z m1483 4 c38 -38 43 -70
19 -116 -19 -36 -43 -50 -89 -50 -51 0 -98 43 -99 92 -3 97 101 142 169 74z
m-385 -18 c6 -11 8 -31 5 -44 -16 -64 -110 -46 -104 19 5 53 75 71 99 25z
m199 -38 c0 -18 -3 -19 -20 -8 -18 12 -19 13 -2 20 9 3 18 7 20 7 1 1 2 -8 2
-19z m533 -12 c24 -28 21 -65 -8 -93 -27 -28 -45 -31 -78 -14 -30 16 -37 28
-37 66 0 65 80 92 123 41z m-1683 -10 c83 -42 115 -157 63 -227 -74 -99 -200
-95 -271 9 -49 72 -13 183 72 221 54 24 82 24 136 -3z m1128 -3 c43 -36 58
-77 43 -125 -35 -117 -193 -121 -231 -5 -36 109 101 203 188 130z m384 11 c75
-57 12 -175 -78 -146 -39 13 -54 35 -54 81 0 46 34 79 79 79 20 0 44 -6 53
-14z m-605 -46 c20 0 23 -3 17 -27 -4 -16 -8 -30 -10 -32 -1 -1 1 -13 5 -25 8
-20 6 -21 -43 -21 l-52 0 3 35 c1 19 3 52 4 72 l1 38 26 -20 c13 -11 35 -20
49 -20z m456 -44 c4 -10 0 -14 -13 -13 -14 1 -16 4 -8 14 13 16 15 16 21 -1z
m-154 -15 c8 -14 7 -20 -3 -24 -9 -4 -13 3 -13 19 0 29 3 30 16 5z m-878 -27
c36 -18 59 -67 52 -107 -8 -39 -57 -77 -99 -77 -87 0 -132 98 -75 164 32 37
76 44 122 20z m1524 -9 c14 -13 25 -36 25 -50 0 -36 -42 -75 -80 -75 -67 0
-97 88 -44 129 35 28 69 26 99 -4z m-189 -4 c58 -35 70 -134 21 -178 -49 -45
-96 -54 -147 -28 -43 22 -60 53 -60 108 0 42 5 54 34 83 28 28 41 34 78 34 25
0 56 -8 74 -19z m-741 -36 c14 -13 25 -36 25 -50 0 -30 -41 -75 -68 -75 -35 0
-72 38 -72 75 0 24 7 39 26 54 35 27 59 26 89 -4z m-405 -14 c29 4 48 2 52 -5
14 -20 8 -27 -12 -16 -14 8 -32 8 -61 0 -34 -10 -44 -18 -60 -55 -10 -24 -16
-51 -13 -60 6 -15 4 -16 -14 -6 -11 6 -36 11 -54 12 -31 0 -31 1 -11 11 31 15
56 73 50 114 l-6 33 42 -18 c30 -12 55 -15 87 -10z m954 14 c-5 -12 -10 -13
-20 -4 -19 15 -18 19 6 19 13 0 18 -5 14 -15z m-490 -72 c-14 -13 -24 -33 -24
-49 0 -20 -4 -25 -16 -20 -9 3 -21 6 -27 6 -7 0 -4 5 6 11 23 13 48 64 41 83
-5 13 -2 13 19 3 l25 -12 -24 -22z m-399 2 c68 -68 -2 -178 -90 -141 -89 37
-66 166 30 166 25 0 44 -8 60 -25z m535 15 c0 -5 -5 -10 -11 -10 -5 0 -7 5 -4
10 3 6 8 10 11 10 2 0 4 -4 4 -10z m-25 -25 c30 -29 32 -64 7 -96 -36 -44
-109 -22 -127 39 -5 17 1 29 24 52 36 36 64 38 96 5z m664 -14 c12 -11 18 -22
12 -25 -5 -4 -12 -20 -16 -36 -8 -35 -5 -34 -38 -17 -24 13 -24 13 -6 36 11
13 19 32 19 42 0 24 2 24 29 0z m187 -25 c56 -56 44 -135 -26 -171 -62 -32
-131 -3 -151 63 -15 52 -2 90 41 120 49 33 95 29 136 -12z m-1765 -5 c71 -72
3 -187 -94 -160 -75 20 -96 109 -39 160 44 40 93 39 133 0z m677 -15 c-2 -1
-13 -10 -25 -20 l-23 -19 0 37 0 36 25 -16 c14 -9 24 -17 23 -18z m-845 2 c-9
-15 -10 -19 -12 -55 l-2 -28 -17 28 c-9 15 -26 30 -37 34 -17 6 -13 9 20 19
52 16 58 16 48 2z m941 -30 c37 -33 43 -76 15 -111 -29 -37 -61 -49 -98 -36
-64 22 -79 92 -32 140 36 36 79 38 115 7z m546 7 c11 -13 8 -15 -13 -15 -19 0
-25 4 -21 15 4 8 10 15 14 15 4 0 13 -7 20 -15z m-1544 -29 c38 -38 43 -70 19
-116 -19 -37 -43 -50 -90 -50 -97 0 -133 138 -47 184 45 25 80 20 118 -18z
m682 22 c-3 -7 1 -19 9 -26 15 -16 28 -60 19 -69 -3 -3 -11 -1 -19 5 -11 10
-91 13 -81 3 6 -6 -30 -30 -38 -25 -19 12 -7 42 20 49 31 8 72 42 72 62 0 7 5
13 11 13 6 0 9 -6 7 -12z m1081 -23 c72 -37 46 -139 -34 -139 -83 0 -104 102
-30 142 26 15 31 15 64 -3z m-160 -16 c28 -17 33 -17 27 -4 -3 9 -2 14 2 11
15 -9 13 -115 -4 -140 -21 -33 -64 -47 -108 -35 -79 22 -92 134 -18 173 37 21
61 19 101 -5z m-527 -7 c15 -6 14 -9 -7 -19 -22 -10 -25 -9 -25 8 0 20 5 22
32 11z m161 -34 c24 -28 21 -55 -8 -83 -29 -30 -45 -31 -79 -4 -35 28 -35 70
1 98 30 24 58 20 86 -11z m-1159 -21 l22 -24 -28 -12 c-52 -23 -73 -97 -44
-153 13 -25 13 -26 -14 -30 -25 -4 -27 -2 -19 13 5 10 8 38 7 62 -2 34 -6 43
-18 40 -8 -3 -1 8 16 24 31 27 58 85 47 97 -4 3 -3 6 2 6 4 0 17 -11 29 -23z
m1359 0 c-6 -29 21 -95 41 -103 13 -5 13 -8 1 -20 -18 -18 -25 -18 -25 3 0 27
-40 78 -72 92 -17 8 -48 11 -73 9 -30 -4 -42 -2 -39 6 3 8 25 10 70 6 54 -5
68 -3 81 12 21 23 21 23 16 -5z m-726 -19 c30 -28 32 -89 3 -118 -49 -49 -140
-10 -140 61 0 67 87 104 137 57z m-493 -13 c-4 -8 -11 -12 -16 -9 -6 4 -5 10
3 15 19 12 19 11 13 -6z m689 -27 l29 -14 -37 -28 c-46 -36 -59 -25 -49 39 5
39 9 45 18 33 6 -8 24 -21 39 -30z m202 4 c-4 -4 -10 -2 -12 5 -2 7 -12 9 -21
6 -13 -4 -12 -2 3 10 18 14 21 14 28 0 5 -8 6 -18 2 -21z m296 -8 c36 -34 44
-72 25 -118 -34 -81 -124 -96 -183 -31 -51 54 -38 134 29 172 34 20 95 9 129
-23z m-1220 16 c25 -14 49 -62 49 -98 0 -19 -11 -41 -29 -61 -54 -58 -150 -36
-172 39 -9 30 -8 43 5 72 10 20 27 40 39 46 29 14 83 15 108 2z m1493 -53
c-15 -11 -32 -34 -40 -51 -7 -17 -13 -26 -14 -19 0 7 -9 21 -20 31 -20 19 -20
19 4 31 13 7 29 24 36 36 12 22 14 23 36 8 l24 -15 -26 -21z m-539 8 c25 -24
33 -73 19 -110 -8 -21 -56 -45 -89 -45 -38 0 -85 50 -85 90 0 76 102 119 155
65z m713 -30 c104 -112 -59 -272 -168 -163 -60 59 -45 152 30 191 50 26 97 16
138 -28z m-1883 0 c14 -13 25 -33 25 -45 0 -11 -11 -32 -25 -45 -66 -66 -157
24 -93 92 28 30 63 29 93 -2z m1233 0 c-1 -14 -5 -25 -9 -25 -3 0 -11 11 -17
25 -10 22 -9 25 8 25 15 0 19 -6 18 -25z m-600 -41 c19 -14 98 -9 118 7 12 10
14 0 14 -69 l0 -80 -47 46 c-27 25 -47 52 -45 59 2 7 -3 10 -11 7 -15 -5 -67
49 -67 69 0 7 6 3 12 -8 6 -11 18 -25 26 -31z m996 5 c34 -40 33 -74 -3 -110
-81 -80 -199 33 -121 116 35 37 90 35 124 -6z m-622 -12 c3 -31 2 -32 -29 -29
-37 5 -43 17 -13 27 11 3 20 13 20 21 0 28 18 13 22 -19z m231 -4 c2 -10 8
-25 11 -34 6 -14 1 -16 -23 -15 -17 0 -31 1 -31 2 0 1 5 15 11 33 12 35 24 40
32 14z m-954 -25 c-12 -5 -24 -6 -27 -3 -3 3 0 5 6 5 7 0 12 7 12 16 0 14 2
14 16 3 14 -12 13 -14 -7 -21z m288 -5 c10 -12 12 -13 8 -3 -4 8 5 2 19 -15
14 -16 23 -32 20 -34 -3 -3 -8 0 -12 6 -10 16 -74 26 -110 18 -17 -3 -42 -18
-57 -32 -19 -19 -24 -21 -19 -8 5 12 4 16 -3 12 -6 -4 -13 0 -17 8 -4 11 2 15
27 15 18 0 53 11 77 24 25 13 47 24 49 25 2 0 10 -7 18 -16z m454 -32 c44 -44
35 -107 -20 -136 -42 -21 -65 -19 -100 11 -25 21 -31 33 -31 65 0 84 91 120
151 60z m-650 -10 c21 -21 29 -39 29 -64 0 -42 -37 -92 -75 -101 -39 -10 -92
18 -111 57 -48 100 78 186 157 108z m1109 -32 c0 -5 -11 -9 -24 -9 -14 0 -38
-11 -55 -25 l-30 -26 -16 31 c-8 16 -21 31 -28 31 -13 2 65 19 100 22 11 1 19
5 16 10 -2 4 -1 12 2 18 7 10 35 -32 35 -52z m-1359 18 c42 -29 59 -60 59
-115 0 -75 -58 -132 -136 -132 -100 0 -164 110 -116 199 37 68 129 91 193 48z
m480 -13 c36 -35 46 -82 25 -122 -22 -43 -54 -62 -104 -62 -61 0 -102 41 -102
100 0 52 13 76 53 101 41 26 90 19 128 -17z m-399 14 c-7 -7 -12 -21 -12 -31
0 -17 -2 -17 -19 4 -19 24 -19 24 2 31 35 10 42 9 29 -4z m1476 -13 c9 -20 9
-26 -1 -24 -32 4 -51 -3 -78 -30 -28 -28 -30 -29 -39 -10 -9 16 -7 19 12 19
13 0 36 15 53 34 17 19 33 35 36 35 3 1 11 -10 17 -24z m-593 5 c-3 -5 -11
-10 -16 -10 -6 0 -7 5 -4 10 3 6 11 10 16 10 6 0 7 -4 4 -10z m446 -59 c20
-20 29 -39 29 -61 0 -43 -47 -90 -90 -90 -43 0 -90 47 -90 90 0 22 9 41 29 61
40 39 82 39 122 0z m174 4 c33 -16 55 -50 55 -85 0 -26 -45 -77 -75 -84 -30
-8 -80 15 -95 43 -26 49 4 125 53 134 12 2 24 5 25 6 2 0 19 -6 37 -14z m-751
-75 c29 0 29 -1 -17 -30 -26 -16 -50 -30 -52 -30 -3 0 -5 21 -5 46 0 45 0 45
22 30 12 -9 36 -16 52 -16z"/>
<path d="M2050 2020 c0 -5 5 -10 11 -10 5 0 7 5 4 10 -3 6 -8 10 -11 10 -2 0
-4 -4 -4 -10z"/>
<path d="M975 1900 c3 -5 8 -10 11 -10 2 0 4 5 4 10 0 6 -5 10 -11 10 -5 0 -7
-4 -4 -10z"/>
<path d="M1563 1735 c0 -22 2 -30 4 -17 2 12 2 30 0 40 -3 9 -5 -1 -4 -23z"/>
<path d="M422 1345 c-81 -68 0 -196 98 -155 56 23 74 115 30 155 -10 9 -36 19
-57 22 -32 4 -45 0 -71 -22z m97 0 c74 -38 42 -150 -41 -147 -39 1 -78 40 -78
78 0 29 49 84 75 84 9 0 29 -7 44 -15z"/>
<path d="M2540 110 c-23 -5 -25 -11 -26 -60 l-1 -55 4 53 4 52 240 0 c161 0
239 3 239 11 0 11 -414 11 -460 -1z"/>
<path d="M2534 76 c-3 -8 -4 -25 -2 -38 2 -19 10 -23 46 -26 l42 -3 0 40 0 41
-40 0 c-26 0 -43 -5 -46 -14z m31 -16 c-4 -7 2 -9 19 -4 29 7 34 -7 11 -26 -9
-7 -15 -8 -15 -2 0 5 -10 8 -22 6 -13 -2 -18 -2 -11 2 7 3 9 12 6 20 -3 8 0
14 7 14 6 0 8 -5 5 -10z"/>
<path d="M2688 55 c-10 -13 -18 -26 -18 -28 0 -14 35 2 38 17 6 30 -3 35 -20
11z"/>
<path d="M2650 61 c0 -5 -3 -18 -7 -28 -6 -16 -5 -16 10 -4 19 15 23 41 7 41
-5 0 -10 -4 -10 -9z"/>
<path d="M2746 55 c-6 -16 8 -28 39 -31 14 -2 21 4 22 18 1 11 -3 17 -10 15
-7 -2 -19 0 -29 4 -11 6 -18 4 -22 -6z"/>
<path d="M2833 45 c0 -14 3 -25 8 -25 5 0 8 11 7 25 -1 14 -5 25 -9 25 -4 0
-6 -11 -6 -25z"/>
<path d="M2942 63 c-9 -4 -6 -11 9 -24 27 -23 25 -23 25 1 0 21 -13 30 -34 23z"/>
<path d="M2861 33 c2 -24 2 -25 6 -5 4 20 6 20 20 7 8 -8 19 -13 24 -10 13 8
11 35 -2 35 -6 0 -8 -8 -5 -17 6 -17 5 -17 -8 0 -20 25 -36 21 -35 -10z"/>
<path d="M2725 30 c3 -5 8 -10 11 -10 2 0 4 5 4 10 0 6 -5 10 -11 10 -5 0 -7
-4 -4 -10z"/>
</g>
</svg>
